# xmcd
#
# Track frame offsets:
#	150
#	11956
#	24788
#	47457
#	67819
#	84639
#	104477
#	122601
#	139762
#	151478
#
# Disc length: 2372 seconds
#
# Revision: 1
# Processed by: cddbd v1.5.2PL0 Copyright (c) Steve Scherf et al.
# Submitted via: EZCDAudioConverter 4.0.2.1
#
DISCID=7709420a
DTITLE=Sandra Mihanovich - Puerto Pollensa
DYEAR=1900
DGENRE=Blues
TTITLE0=Cuatro Estrofas
TTITLE1=Me Contaron Que Bajo El Asfalto
TTITLE2=Es La Vida Que Me Alcanza
TTITLE3=Y Hoy Te Vi
TTITLE4=Igual a Los Demas
TTITLE5=Puerto Pollensa
TTITLE6=Vos, Yo, Uno Mas Uno
TTITLE7=Simple
TTITLE8=Conversar Con Un Amigo
TTITLE9=Mil Veces Lloro
EXTD=
EXTT0=
EXTT1=
EXTT2=
EXTT3=
EXTT4=
EXTT5=
EXTT6=
EXTT7=
EXTT8=
EXTT9=
PLAYORDER=
